<svg width="48" height="48" viewBox="0 0 48 48" fill="none" xmlns="http://www.w3.org/2000/svg">
<rect opacity="0.1" width="48" height="48" rx="12" fill="#5669FF"/>
<path opacity="0.4" fill-rule="evenodd" clip-rule="evenodd" d="M20.1838 15.3519H27.8621V13.5642H20.1838V15.3519ZM18.4371 13.6376V13.6465C17.8377 13.701 17.2447 13.82 16.6679 13.9991V13.9925C16.6507 13.9997 16.6346 14.0052 16.6191 14.0105C16.5987 14.0175 16.5795 14.0241 16.5606 14.0336C16.5145 14.0447 16.4695 14.0614 16.4266 14.0826C16.3001 14.1237 16.1736 14.1727 16.0545 14.2227C16.0229 14.235 15.9913 14.2492 15.9596 14.2633C15.928 14.2775 15.8964 14.2917 15.8648 14.304C15.8213 14.3245 15.776 14.3471 15.7307 14.3696C15.6854 14.3921 15.6401 14.4146 15.5967 14.4352L15.3822 14.5587C15.3426 14.5789 15.3059 14.6027 15.2684 14.6269C15.2461 14.6413 15.2236 14.6558 15.2 14.67C14.8772 14.878 14.5781 15.1216 14.3079 15.3986L14.2918 15.4153C14.2563 15.4567 14.2209 15.4968 14.1861 15.5364C14.1272 15.6033 14.0697 15.6686 14.0151 15.7357L13.999 15.7513C13.122 16.9617 12.6823 18.4535 12.7585 19.9654V20.4449H14.4901V19.961C14.4901 17.8539 15.1614 16.5423 16.655 15.8703C17.2254 15.6289 17.828 15.4799 18.4414 15.4253H18.4574V13.6454L18.4371 13.6376ZM33.9975 15.7291L34.005 15.7446C34.881 16.9561 35.3185 18.4491 35.2413 19.961V20.4449H33.5107V19.9487C33.5471 19.0565 33.3681 18.1687 32.9885 17.3666C32.6239 16.6802 32.0406 16.1474 31.3362 15.8581C30.7754 15.6167 30.1814 15.4665 29.5755 15.4131V13.642C30.1749 13.6976 30.7679 13.8156 31.3458 13.9947V13.9858C31.3783 14.0005 31.4031 14.0093 31.4456 14.0243L31.453 14.0269C31.4728 14.0339 31.4912 14.0409 31.5094 14.0478C31.5347 14.0574 31.5596 14.0668 31.5871 14.0759C31.7056 14.1148 31.8165 14.1606 31.9306 14.2078L31.9506 14.2161C32.0032 14.2346 32.0528 14.2575 32.0975 14.2781C32.1119 14.2848 32.1259 14.2913 32.1393 14.2973C32.2336 14.3384 32.3301 14.3874 32.4073 14.4286C32.4588 14.4553 32.509 14.4839 32.556 14.5107C32.5814 14.5252 32.606 14.5392 32.6293 14.552C32.6677 14.5733 32.7011 14.596 32.7332 14.6178C32.7567 14.6337 32.7795 14.6492 32.803 14.6633C33.1268 14.8724 33.4292 15.1172 33.7026 15.392L33.7123 15.4087C33.813 15.5099 33.9085 15.6167 33.9975 15.7291Z" fill="#5669FF"/>
<path d="M29.625 12.3962V16.3356C29.625 16.832 29.2223 17.234 28.725 17.234C28.2278 17.234 27.825 16.832 27.825 16.3356V12.4052C27.8205 11.9088 28.221 11.5034 28.7183 11.5C29.2155 11.4967 29.6217 11.8953 29.625 12.3917V12.3962Z" fill="#5669FF"/>
<path d="M20.175 12.4105V16.3401C20.175 16.8386 19.7718 17.2428 19.2744 17.2428C18.7771 17.2428 18.375 16.8386 18.375 16.3401V12.4105C18.375 11.9119 18.7771 11.5089 19.2744 11.5089C19.7718 11.5089 20.175 11.9119 20.175 12.4105" fill="#5669FF"/>
<path fill-rule="evenodd" clip-rule="evenodd" d="M12.75 30.1377V20.4449H35.25V30.1377C35.25 34.3645 32.8895 36.5 28.2114 36.5H19.7779C15.1105 36.5 12.75 34.3645 12.75 30.1377ZM17.8251 25.8335C17.8251 26.4199 18.2865 26.8957 18.8552 26.8957C19.4346 26.8957 19.8959 26.4088 19.8852 25.8224C19.8852 25.236 19.4238 24.7602 18.8659 24.7602H18.8552C18.2865 24.7602 17.8251 25.247 17.8251 25.8335ZM22.9646 25.8335C22.9646 26.4199 23.4367 26.8957 24.0054 26.8957C24.574 26.8957 25.0354 26.4199 25.0354 25.8224C25.0354 25.247 24.574 24.7712 24.0054 24.7602H23.9946C23.426 24.7712 22.9646 25.247 22.9646 25.8335ZM29.1449 26.8957C28.5762 26.8957 28.1148 26.4199 28.1148 25.8335C28.1148 25.247 28.5655 24.7713 29.1449 24.7713C29.7135 24.7713 30.1749 25.247 30.1749 25.8335C30.1749 26.4199 29.7135 26.8957 29.1449 26.8957ZM29.1449 31.4323C28.5762 31.4323 28.1148 30.9565 28.1041 30.3701C28.1041 29.7836 28.5655 29.3078 29.1341 29.3078H29.1449C29.7135 29.3078 30.1749 29.7836 30.1749 30.3701C30.1749 30.9565 29.7135 31.4323 29.1449 31.4323ZM24.0054 31.4323C23.4367 31.4323 22.9646 30.9565 22.9646 30.3701C22.9646 29.7836 23.426 29.3078 23.9946 29.2968H24.0054C24.574 29.3078 25.0247 29.7836 25.0354 30.359C25.0354 30.9565 24.574 31.4323 24.0054 31.4323ZM18.8552 31.4323C18.2865 31.4323 17.8251 30.9565 17.8251 30.3701C17.8144 29.7836 18.2758 29.2968 18.8552 29.2968C19.4238 29.2968 19.8852 29.7726 19.8852 30.359C19.8852 30.9454 19.4238 31.4323 18.8552 31.4323Z" fill="#5669FF"/>
</svg>
