<svg width="22" height="22" viewBox="0 0 22 22" fill="none" xmlns="http://www.w3.org/2000/svg">
<g id="more-vertical">
<path id="Vector" d="M11 11.9167C11.5063 11.9167 11.9167 11.5063 11.9167 11C11.9167 10.4937 11.5063 10.0833 11 10.0833C10.4937 10.0833 10.0833 10.4937 10.0833 11C10.0833 11.5063 10.4937 11.9167 11 11.9167Z" fill="#060518" stroke="#060518" stroke-width="2" stroke-linecap="round" stroke-linejoin="round"/>
<path id="Vector_2" d="M11 5.49999C11.5063 5.49999 11.9167 5.08958 11.9167 4.58332C11.9167 4.07706 11.5063 3.66666 11 3.66666C10.4937 3.66666 10.0833 4.07706 10.0833 4.58332C10.0833 5.08958 10.4937 5.49999 11 5.49999Z" fill="#060518" stroke="#060518" stroke-width="2" stroke-linecap="round" stroke-linejoin="round"/>
<path id="Vector_3" d="M11 18.3333C11.5063 18.3333 11.9167 17.9229 11.9167 17.4167C11.9167 16.9104 11.5063 16.5 11 16.5C10.4937 16.5 10.0833 16.9104 10.0833 17.4167C10.0833 17.9229 10.4937 18.3333 11 18.3333Z" fill="#060518" stroke="#060518" stroke-width="2" stroke-linecap="round" stroke-linejoin="round"/>
</g>
</svg>
